# This file uses centimeters as units for non-parametric coordinates.

mtllib BendyFloor.mtl
g default
v -3.172737 -0.000002 2.313010
v -2.186831 -0.000002 2.291365
v -1.132112 -0.000002 2.277600
v 0.017293 -0.000002 2.274244
v 1.287067 -0.000002 2.283878
v 2.702518 -0.000002 2.309135
v 4.279576 -0.000002 2.354368
v 5.981538 -0.000002 2.434188
v 7.763785 -0.000002 2.566921
v 9.584639 -0.000002 2.770479
v 11.400871 -0.000002 3.062002
v 13.167965 -0.000002 3.457356
v 14.840405 -0.000002 3.970323
v 16.382217 -0.000002 4.609384
v 17.852942 -0.000002 5.365377
v 19.322374 -0.000002 6.214181
v 20.830566 -0.000002 7.118182
v 22.416603 -0.000002 8.033001
v 24.120481 -0.000002 8.907934
v 25.981653 -0.000002 9.686222
v 28.031042 -0.000002 10.307632
v 30.223703 -0.000002 10.741483
v 32.499550 -0.000002 11.006426
v 34.831684 -0.000002 11.131381
v 37.193642 -0.000002 11.142081
v 39.557854 -0.000002 11.062140
v 41.895630 -0.000002 10.913918
v 44.178120 -0.000002 10.718546
v 46.403568 -0.000002 10.479270
v 48.592411 -0.000002 10.178246
v 50.752972 -0.000002 9.796959
v 52.891972 -0.000002 9.316717
v 55.015247 -0.000002 8.718819
v 57.127670 -0.000002 7.984848
v 59.233116 -0.000002 7.097400
v 61.319939 -0.000002 6.074351
v 63.372055 -0.000002 4.988570
v 65.402809 -0.000002 3.903812
v 67.425308 -0.000002 2.879908
v 69.449379 -0.000002 1.974551
v 71.482552 -0.000002 1.242622
v 73.532188 -0.000002 0.734812
v 75.622589 -0.000002 0.470390
v 77.799240 -0.000002 0.411381
v 80.062248 -0.000002 0.527880
v 82.399826 -0.000002 0.789837
v 84.798645 -0.000002 1.164636
v 87.245338 -0.000002 1.617548
v 89.727280 -0.000002 2.112324
v -3.271798 0.000002 -1.142409
v -2.262843 0.000002 -1.164639
v -1.177447 0.000002 -1.178942
v 0.006934 0.000002 -1.182580
v 1.313035 0.000002 -1.172864
v 2.763969 0.000002 -1.147158
v 4.378459 0.000002 -1.101057
v 6.142908 0.000002 -1.018882
v 8.019276 0.000002 -0.880464
v 9.966509 0.000002 -0.665203
v 11.945112 0.000002 -0.351726
v 13.916859 0.000002 0.082612
v 15.844545 0.000002 0.662540
v 17.691324 0.000002 1.410013
v 19.422260 0.000002 2.285285
v 21.047434 0.000002 3.218534
v 22.607332 0.000002 4.152912
v 24.143372 0.000002 5.038339
v 25.696096 0.000002 5.831056
v 27.306562 0.000002 6.493363
v 29.019892 0.000002 6.995246
v 30.881952 0.000002 7.347895
v 32.891392 0.000002 7.571868
v 35.011806 0.000002 7.679240
v 37.206326 0.000002 7.685269
v 39.439201 0.000002 7.607338
v 41.675793 0.000002 7.464077
v 43.882683 0.000002 7.274359
v 46.033382 0.000002 7.042311
v 48.120251 0.000002 6.753808
v 50.150234 0.000002 6.393075
v 52.131840 0.000002 5.944491
v 54.074482 0.000002 5.392459
v 55.988544 0.000002 4.721093
v 57.885433 0.000002 3.914097
v 59.794586 0.000002 2.972255
v 61.754356 0.000002 1.933614
v 63.774086 0.000002 0.854723
v 65.863411 0.000002 -0.203939
v 68.035179 0.000002 -1.179762
v 70.304611 0.000002 -2.007320
v 72.686981 0.000002 -2.617095
v 75.169983 0.000002 -2.956681
v 77.691818 0.000002 -3.043778
v 80.231544 0.000002 -2.924800
v 82.780075 0.000002 -2.646014
v 85.329926 0.000002 -2.251121
v 87.873596 0.000002 -1.781708
v 90.402885 0.000002 -1.277840
vt 0.269859 0.998008
vt 0.194127 0.996954
vt 0.194601 0.986472
vt 0.270346 0.987279
vt 0.194903 0.975257
vt 0.270660 0.975739
vt 0.194977 0.963035
vt 0.270740 0.963146
vt 0.194765 0.949534
vt 0.270526 0.949258
vt 0.194212 0.934484
vt 0.269963 0.933831
vt 0.193221 0.917716
vt 0.268953 0.916664
vt 0.191471 0.899619
vt 0.267152 0.897904
vt 0.188563 0.880669
vt 0.264118 0.877953
vt 0.184101 0.861309
vt 0.259400 0.857249
vt 0.177712 0.841998
vt 0.252530 0.836211
vt 0.169047 0.823209
vt 0.243010 0.815246
vt 0.157804 0.805426
vt 0.230300 0.794749
vt 0.143798 0.789033
vt 0.213918 0.775113
vt 0.127229 0.773394
vt 0.194735 0.756708
vt 0.108626 0.757770
vt 0.174281 0.739429
vt 0.088813 0.741734
vt 0.153802 0.722843
vt 0.068763 0.724870
vt 0.134396 0.706510
vt 0.049588 0.706754
vt 0.117023 0.690000
vt 0.032529 0.686964
vt 0.102507 0.672877
vt 0.018910 0.665174
vt 0.091507 0.654659
vt 0.009402 0.641859
vt 0.083778 0.634860
vt 0.003595 0.617661
vt 0.078869 0.613495
vt 0.000856 0.592864
vt 0.076516 0.590949
vt 0.000622 0.567751
vt 0.076384 0.567615
vt 0.002374 0.542612
vt 0.078092 0.543873
vt 0.005623 0.517755
vt 0.081232 0.520093
vt 0.009904 0.493486
vt 0.085390 0.496627
vt 0.015149 0.469824
vt 0.090475 0.473760
vt 0.021746 0.446550
vt 0.096799 0.451571
vt 0.030102 0.423578
vt 0.104705 0.429987
vt 0.040628 0.400834
vt 0.114536 0.408916
vt 0.053732 0.378258
vt 0.126636 0.388261
vt 0.069818 0.355797
vt 0.141350 0.367909
vt 0.089268 0.333410
vt 0.159036 0.347740
vt 0.111690 0.311222
vt 0.179679 0.327441
vt 0.135487 0.289403
vt 0.202443 0.306603
vt 0.159262 0.267810
vt 0.226088 0.285128
vt 0.181703 0.246306
vt 0.249291 0.262913
vt 0.201545 0.224784
vt 0.270678 0.239821
vt 0.217587 0.203166
vt 0.288815 0.215690
vt 0.228716 0.181373
vt 0.302180 0.190359
vt 0.234512 0.159147
vt 0.309622 0.163959
vt 0.235804 0.136002
vt 0.311531 0.137144
vt 0.233252 0.111941
vt 0.308924 0.110141
vt 0.227510 0.087086
vt 0.302813 0.083043
vt 0.219296 0.061580
vt 0.294159 0.055931
vt 0.209369 0.035565
vt 0.283870 0.028885
vt 0.198526 0.009175
vt 0.272827 0.001992
vn 0.000000 1.000000 0.000001
vn 0.000000 1.000000 0.000001
vn 0.000000 1.000000 0.000001
vn 0.000000 1.000000 0.000001
vn 0.000000 1.000000 0.000001
vn 0.000000 1.000000 0.000001
vn -0.000000 1.000000 0.000001
vn -0.000000 1.000000 0.000001
vn -0.000000 1.000000 0.000001
vn -0.000000 1.000000 0.000001
vn -0.000000 1.000000 0.000001
vn -0.000000 1.000000 0.000001
vn -0.000000 1.000000 0.000001
vn -0.000000 1.000000 0.000001
vn -0.000000 1.000000 0.000001
vn -0.000000 1.000000 0.000001
vn -0.000000 1.000000 0.000001
vn -0.000000 1.000000 0.000001
vn -0.000000 1.000000 0.000001
vn -0.000000 1.000000 0.000001
vn -0.000000 1.000000 0.000001
vn -0.000000 1.000000 0.000001
vn -0.000000 1.000000 0.000001
vn -0.000000 1.000000 0.000001
vn -0.000000 1.000000 0.000001
vn -0.000000 1.000000 0.000001
vn -0.000000 1.000000 0.000001
vn -0.000000 1.000000 0.000001
vn -0.000000 1.000000 0.000001
vn -0.000000 1.000000 0.000001
vn -0.000000 1.000000 0.000001
vn -0.000000 1.000000 0.000001
vn -0.000000 1.000000 0.000001
vn -0.000000 1.000000 0.000001
vn -0.000000 1.000000 0.000001
vn -0.000000 1.000000 0.000001
vn -0.000000 1.000000 0.000001
vn -0.000000 1.000000 0.000001
vn -0.000000 1.000000 0.000001
vn -0.000000 1.000000 0.000001
vn -0.000000 1.000000 0.000001
vn -0.000000 1.000000 0.000001
vn -0.000000 1.000000 0.000001
vn -0.000000 1.000000 0.000001
vn -0.000000 1.000000 0.000001
vn -0.000000 1.000000 0.000001
vn -0.000000 1.000000 0.000001
vn -0.000000 1.000000 0.000001
vn 0.000000 1.000000 0.000001
vn 0.000000 1.000000 0.000001
vn 0.000000 1.000000 0.000001
vn 0.000000 1.000000 0.000001
vn 0.000000 1.000000 0.000001
vn 0.000000 1.000000 0.000001
vn 0.000000 1.000000 0.000001
vn 0.000000 1.000000 0.000001
vn 0.000000 1.000000 0.000001
vn 0.000000 1.000000 0.000001
vn 0.000000 1.000000 0.000001
vn 0.000000 1.000000 0.000001
vn 0.000000 1.000000 0.000001
vn 0.000000 1.000000 0.000001
vn 0.000000 1.000000 0.000001
vn 0.000000 1.000000 0.000001
vn 0.000000 1.000000 0.000001
vn 0.000000 1.000000 0.000001
vn 0.000000 1.000000 0.000001
vn 0.000000 1.000000 0.000001
vn 0.000000 1.000000 0.000001
vn 0.000000 1.000000 0.000001
vn 0.000000 1.000000 0.000001
vn 0.000000 1.000000 0.000001
vn 0.000000 1.000000 0.000001
vn 0.000000 1.000000 0.000001
vn 0.000000 1.000000 0.000001
vn 0.000000 1.000000 0.000001
vn 0.000000 1.000000 0.000001
vn 0.000000 1.000000 0.000001
vn 0.000000 1.000000 0.000001
vn 0.000000 1.000000 0.000001
vn 0.000000 1.000000 0.000001
vn 0.000000 1.000000 0.000001
vn 0.000000 1.000000 0.000001
vn 0.000000 1.000000 0.000001
vn 0.000000 1.000000 0.000001
vn 0.000000 1.000000 0.000001
vn -0.000000 1.000000 0.000001
vn -0.000000 1.000000 0.000001
vn -0.000000 1.000000 0.000001
vn -0.000000 1.000000 0.000001
vn -0.000000 1.000000 0.000001
vn -0.000000 1.000000 0.000001
vn -0.000000 1.000000 0.000001
vn -0.000000 1.000000 0.000001
vn -0.000000 1.000000 0.000001
vn -0.000000 1.000000 0.000001
vn -0.000000 1.000000 0.000001
vn -0.000000 1.000000 0.000001
s 1
g pPlane2
usemtl initialShadingGroup
f 50/1/1 1/2/2 2/3/3 51/4/4
f 51/4/4 2/3/3 3/5/5 52/6/6
f 52/6/6 3/5/5 4/7/7 53/8/8
f 53/8/8 4/7/7 5/9/9 54/10/10
f 54/10/10 5/9/9 6/11/11 55/12/12
f 55/12/12 6/11/11 7/13/13 56/14/14
f 56/14/14 7/13/13 8/15/15 57/16/16
f 57/16/16 8/15/15 9/17/17 58/18/18
f 58/18/18 9/17/17 10/19/19 59/20/20
f 59/20/20 10/19/19 11/21/21 60/22/22
f 60/22/22 11/21/21 12/23/23 61/24/24
f 61/24/24 12/23/23 13/25/25 62/26/26
f 62/26/26 13/25/25 14/27/27 63/28/28
f 63/28/28 14/27/27 15/29/29 64/30/30
f 64/30/30 15/29/29 16/31/31 65/32/32
f 65/32/32 16/31/31 17/33/33 66/34/34
f 66/34/34 17/33/33 18/35/35 67/36/36
f 67/36/36 18/35/35 19/37/37 68/38/38
f 68/38/38 19/37/37 20/39/39 69/40/40
f 69/40/40 20/39/39 21/41/41 70/42/42
f 70/42/42 21/41/41 22/43/43 71/44/44
f 71/44/44 22/43/43 23/45/45 72/46/46
f 72/46/46 23/45/45 24/47/47 73/48/48
f 73/48/48 24/47/47 25/49/49 74/50/50
f 74/50/50 25/49/49 26/51/51 75/52/52
f 75/52/52 26/51/51 27/53/53 76/54/54
f 76/54/54 27/53/53 28/55/55 77/56/56
f 77/56/56 28/55/55 29/57/57 78/58/58
f 78/58/58 29/57/57 30/59/59 79/60/60
f 79/60/60 30/59/59 31/61/61 80/62/62
f 80/62/62 31/61/61 32/63/63 81/64/64
f 81/64/64 32/63/63 33/65/65 82/66/66
f 82/66/66 33/65/65 34/67/67 83/68/68
f 83/68/68 34/67/67 35/69/69 84/70/70
f 84/70/70 35/69/69 36/71/71 85/72/72
f 85/72/72 36/71/71 37/73/73 86/74/74
f 86/74/74 37/73/73 38/75/75 87/76/76
f 87/76/76 38/75/75 39/77/77 88/78/78
f 88/78/78 39/77/77 40/79/79 89/80/80
f 89/80/80 40/79/79 41/81/81 90/82/82
f 90/82/82 41/81/81 42/83/83 91/84/84
f 91/84/84 42/83/83 43/85/85 92/86/86
f 92/86/86 43/85/85 44/87/87 93/88/88
f 93/88/88 44/87/87 45/89/89 94/90/90
f 94/90/90 45/89/89 46/91/91 95/92/92
f 95/92/92 46/91/91 47/93/93 96/94/94
f 96/94/94 47/93/93 48/95/95 97/96/96
f 97/96/96 48/95/95 49/97/97 98/98/98
