# This file uses centimeters as units for non-parametric coordinates.

mtllib groundWHole.mtl
g default
v -3.384430 0.000000 3.384430
v -2.707544 0.000000 3.384430
v -2.707544 0.000000 2.707544
v -3.384430 0.000000 2.707544
v 2.707545 0.000000 -2.707545
v 3.384430 0.000000 -2.707545
v 3.384430 0.000000 -3.384430
v 2.707545 0.000000 -3.384430
v -2.030658 0.000000 2.707544
v -2.030658 0.000000 2.030658
v -2.707544 0.000000 2.030658
v 2.030658 0.000000 -2.030658
v 2.707545 0.000000 -2.030658
v 2.030658 0.000000 -2.707545
v 1.353772 0.000000 -1.353772
v 2.030658 0.000000 -1.353772
v 1.353772 0.000000 -2.030658
v 0.383867 0.000000 0.408832
v -0.925263 0.000000 1.685529
v -0.702135 0.000000 1.353772
v -0.676886 0.000000 1.316230
v -0.612102 0.000000 0.783357
v 2.150074 0.000000 -0.913021
v 2.030658 0.000000 -0.986948
v 1.594974 0.000000 -1.256666
v -0.676886 0.000000 1.353772
v -0.364980 -0.000000 0.463397
v 0.000000 0.000000 0.676886
v 0.000000 0.000000 0.334420
v 1.353772 0.000000 -1.332749
v -2.030658 0.000000 3.384430
v 3.384430 0.000000 -2.030658
v -1.353772 0.000000 2.707544
v -1.353772 0.000000 2.030658
v 2.707545 0.000000 -1.353772
v 0.638353 -0.000000 0.556255
v -0.676886 0.000000 2.030658
v 0.000000 0.000000 2.030658
v 0.000000 0.000000 1.353772
v -1.353772 0.000000 3.384430
v -0.676886 0.000000 2.707544
v 3.384430 0.000000 -1.353772
v 2.629273 0.000000 0.000000
v 2.506469 0.000000 -0.480004
v -1.353772 0.000000 1.385968
v 2.344425 0.000000 -0.676886
v 0.803438 0.000000 0.818849
v 0.762326 0.000000 1.077765
v 0.676886 0.000000 1.353772
v 0.959192 0.000000 1.353772
v 2.423053 0.000000 0.526638
v 0.000000 0.000000 2.707544
v 0.676886 0.000000 2.030658
v -0.676886 0.000000 3.384430
v 2.707545 0.000000 -0.676886
v 3.384430 0.000000 -0.676886
v 0.000000 0.000000 3.384430
v 2.707545 0.000000 0.000000
v 3.384430 0.000000 0.000000
v 0.676886 0.000000 2.707544
v 1.208441 0.000000 1.703220
v 1.628163 0.000000 1.353772
v 2.030658 0.000000 1.353772
v 2.030658 0.000000 0.966698
v 1.850776 0.000000 1.168430
v 1.353772 0.000000 2.707544
v 1.353772 0.000000 2.030658
v 0.676886 0.000000 3.384430
v 2.707545 0.000000 0.676886
v 3.384430 0.000000 0.676886
v 2.030658 0.000000 2.707544
v 2.030658 0.000000 2.030658
v 1.353772 0.000000 3.384430
v 2.707545 0.000000 1.353772
v 3.384430 0.000000 1.353772
v 2.707545 0.000000 2.030658
v 2.289079 0.000000 0.676886
v 2.030658 0.000000 3.384430
v 3.384430 0.000000 2.030658
v 2.707545 0.000000 2.707544
v 1.353772 0.000000 1.582222
v 2.707545 0.000000 3.384430
v 3.384430 0.000000 2.707544
v 3.384430 0.000000 3.384430
v -1.399827 0.000000 1.353772
v -2.030658 0.000000 1.353772
v 1.287123 0.000000 -1.353772
v -1.701369 0.000000 1.142971
v -2.030658 0.000000 0.755075
v -3.384430 0.000000 2.030658
v 2.030658 0.000000 -3.384430
v -2.707544 0.000000 1.353772
v 1.353772 0.000000 -2.707545
v 0.676886 0.000000 -2.030658
v 0.676886 0.000000 -1.498736
v 0.895509 0.000000 -1.477299
v -3.384430 0.000000 1.353772
v 0.676886 0.000000 -2.707545
v 1.353772 0.000000 -3.384430
v -1.046832 0.000000 -1.353772
v -1.353772 0.000000 -1.353772
v -1.353772 0.000000 -1.256953
v 0.000000 0.000000 -2.030658
v 0.000000 0.000000 -2.707545
v 0.676886 0.000000 -3.384430
v -2.707544 0.000000 0.676886
v -3.384430 0.000000 0.676886
v -2.097034 0.000000 0.676886
v 0.000000 0.000000 -1.541544
v 0.120145 0.000000 -1.553324
v 0.000000 0.000000 -3.384430
v -2.707544 0.000000 0.000000
v -3.384430 0.000000 0.000000
v -0.676886 0.000000 -2.030658
v -0.676886 0.000000 -2.707545
v -2.388984 0.000000 0.000000
v -2.238318 0.000000 0.510457
v -0.676886 0.000000 -1.470465
v -0.655219 0.000000 -1.477299
v -2.266178 0.000000 -0.480004
v -2.030658 0.000000 -1.353772
v -1.353772 0.000000 -2.030658
v -2.030658 0.000000 -2.030658
v -1.353772 0.000000 -2.707545
v -0.676886 0.000000 -3.384430
v -2.707544 0.000000 -0.676886
v -3.384430 0.000000 -0.676886
v -1.354684 0.000000 -1.256666
v -1.909783 0.000000 -0.913021
v -2.707544 0.000000 -1.353772
v -2.707544 0.000000 -2.030658
v -1.353772 0.000000 -3.384430
v -3.384430 0.000000 -1.353772
v -2.030658 0.000000 -2.707545
v -2.104134 0.000000 -0.676886
v -3.384430 0.000000 -2.030658
v -2.030658 0.000000 -3.384430
v -2.707544 0.000000 -2.707545
v -2.030658 0.000000 -0.766158
v -3.384430 0.000000 -2.707545
v -2.707544 0.000000 -3.384430
v -3.384430 0.000000 -3.384430
vt 0.000000 0.000000
vt 0.100000 0.000000
vt 0.100000 0.100000
vt 0.000000 0.100000
vt 0.900000 0.900000
vt 1.000000 0.900000
vt 1.000000 1.000000
vt 0.900000 1.000000
vt 0.200000 0.100000
vt 0.200000 0.200000
vt 0.100000 0.200000
vt 0.800000 0.800000
vt 0.900000 0.800000
vt 0.800000 0.900000
vt 0.700000 0.700000
vt 0.800000 0.700000
vt 0.700000 0.800000
vt 0.396270 0.300000
vt 0.400000 0.300000
vt 0.400000 0.305546
vt 0.464356 0.400000
vt 0.500000 0.400000
vt 0.500000 0.450594
vt 0.800000 0.645807
vt 0.700000 0.696894
vt 0.735634 0.685654
vt 0.200000 0.000000
vt 1.000000 0.800000
vt 0.300000 0.100000
vt 0.300000 0.200000
vt 0.900000 0.700000
vt 0.578760 0.400000
vt 0.527506 0.489639
vt 0.400000 0.200000
vt 0.500000 0.200000
vt 0.500000 0.300000
vt 0.300000 0.000000
vt 0.400000 0.100000
vt 1.000000 0.700000
vt 0.363306 0.250988
vt 0.300000 0.295243
vt 0.446046 0.374009
vt 0.600000 0.300000
vt 0.641707 0.300000
vt 0.612623 0.340776
vt 0.600000 0.362852
vt 0.500000 0.100000
vt 0.600000 0.200000
vt 0.400000 0.000000
vt 0.900000 0.600000
vt 1.000000 0.600000
vt 0.500000 0.000000
vt 0.900000 0.500000
vt 1.000000 0.500000
vt 0.600000 0.100000
vt 0.846354 0.600000
vt 0.817642 0.634886
vt 0.740537 0.300000
vt 0.800000 0.300000
vt 0.800000 0.357185
vt 0.773425 0.327382
vt 0.700000 0.100000
vt 0.700000 0.200000
vt 0.600000 0.000000
vt 0.900000 0.400000
vt 1.000000 0.400000
vt 0.888437 0.500000
vt 0.870294 0.570914
vt 0.800000 0.100000
vt 0.800000 0.200000
vt 0.700000 0.000000
vt 0.900000 0.300000
vt 1.000000 0.300000
vt 0.900000 0.200000
vt 0.838178 0.400000
vt 0.857970 0.422197
vt 0.800000 0.000000
vt 1.000000 0.200000
vt 0.900000 0.100000
vt 0.700000 0.266250
vt 0.900000 0.000000
vt 1.000000 0.100000
vt 1.000000 0.000000
vt 0.678530 0.248374
vt 0.293196 0.300000
vt 0.200000 0.300000
vt 0.690154 0.700000
vt 0.248648 0.331143
vt 0.200000 0.388449
vt 0.000000 0.200000
vt 0.800000 1.000000
vt 0.100000 0.300000
vt 0.700000 0.900000
vt 0.600000 0.800000
vt 0.600000 0.721416
vt 0.632298 0.718249
vt 0.000000 0.300000
vt 0.600000 0.900000
vt 0.700000 1.000000
vt 0.345346 0.700000
vt 0.300000 0.700000
vt 0.300000 0.685696
vt 0.500000 0.800000
vt 0.500000 0.900000
vt 0.600000 1.000000
vt 0.100000 0.400000
vt 0.000000 0.400000
vt 0.190194 0.400000
vt 0.500000 0.727741
vt 0.517750 0.729481
vt 0.500000 1.000000
vt 0.100000 0.500000
vt 0.000000 0.500000
vt 0.400000 0.800000
vt 0.400000 0.900000
vt 0.169321 0.424587
vt 0.147063 0.500000
vt 0.400000 0.717240
vt 0.403201 0.718249
vt 0.200000 0.700000
vt 0.300000 0.800000
vt 0.200000 0.800000
vt 0.300000 0.900000
vt 0.400000 1.000000
vt 0.100000 0.600000
vt 0.000000 0.600000
vt 0.100000 0.700000
vt 0.100000 0.800000
vt 0.300000 1.000000
vt 0.000000 0.700000
vt 0.200000 0.900000
vt 0.165205 0.570913
vt 0.189145 0.600000
vt 0.000000 0.800000
vt 0.200000 1.000000
vt 0.100000 0.900000
vt 0.200000 0.613189
vt 0.000000 0.900000
vt 0.100000 1.000000
vt 0.000000 1.000000
vt 0.217858 0.634885
vt 0.299865 0.685654
vn 0.000000 1.000000 0.000000
vn 0.000000 1.000000 0.000000
vn 0.000000 1.000000 0.000000
vn 0.000000 1.000000 0.000000
vn 0.000000 1.000000 0.000000
vn 0.000000 1.000000 0.000000
vn 0.000000 1.000000 0.000000
vn 0.000000 1.000000 0.000000
vn 0.000000 1.000000 0.000000
vn 0.000000 1.000000 0.000000
vn 0.000000 1.000000 0.000000
vn 0.000000 1.000000 0.000000
vn 0.000000 1.000000 0.000000
vn 0.000000 1.000000 0.000000
vn 0.000000 1.000000 0.000000
vn 0.000000 1.000000 0.000000
vn 0.000000 1.000000 0.000000
vn 0.000000 1.000000 0.000000
vn -0.000000 1.000000 -0.000000
vn -0.000000 1.000000 -0.000000
vn -0.000000 1.000000 -0.000000
vn 0.000000 1.000000 -0.000000
vn -0.000000 1.000000 0.000000
vn 0.000000 1.000000 0.000000
vn 0.000000 1.000000 0.000000
vn 0.000000 1.000000 0.000000
vn 0.000000 1.000000 0.000000
vn 0.000000 1.000000 0.000000
vn 0.000000 1.000000 0.000000
vn 0.000000 1.000000 0.000000
vn 0.000000 1.000000 0.000000
vn 0.000000 1.000000 -0.000000
vn 0.000000 1.000000 0.000000
vn 0.000000 1.000000 0.000000
vn 0.000000 1.000000 0.000000
vn 0.000000 1.000000 -0.000000
vn 0.000000 1.000000 0.000000
vn 0.000000 1.000000 0.000000
vn 0.000000 1.000000 0.000000
vn 0.000000 1.000000 0.000000
vn 0.000000 1.000000 0.000000
vn -0.000000 1.000000 -0.000000
vn 0.000000 1.000000 -0.000000
vn 0.000000 1.000000 0.000000
vn 0.000000 1.000000 0.000000
vn 0.000000 1.000000 -0.000000
vn 0.000000 1.000000 0.000000
vn 0.000000 1.000000 0.000000
vn 0.000000 1.000000 0.000000
vn 0.000000 1.000000 0.000000
vn 0.000000 1.000000 0.000000
vn 0.000000 1.000000 0.000000
vn 0.000000 1.000000 0.000000
vn 0.000000 1.000000 0.000000
vn 0.000000 1.000000 0.000000
vn 0.000000 1.000000 0.000000
vn 0.000000 1.000000 0.000000
vn 0.000000 1.000000 0.000000
vn 0.000000 1.000000 0.000000
vn 0.000000 1.000000 0.000000
vn 0.000000 1.000000 0.000000
vn 0.000000 1.000000 0.000000
vn 0.000000 1.000000 0.000000
vn 0.000000 1.000000 0.000000
vn 0.000000 1.000000 0.000000
vn 0.000000 1.000000 0.000000
vn 0.000000 1.000000 0.000000
vn 0.000000 1.000000 0.000000
vn 0.000000 1.000000 0.000000
vn 0.000000 1.000000 0.000000
vn 0.000000 1.000000 0.000000
vn 0.000000 1.000000 0.000000
vn 0.000000 1.000000 0.000000
vn 0.000000 1.000000 0.000000
vn 0.000000 1.000000 0.000000
vn 0.000000 1.000000 0.000000
vn 0.000000 1.000000 0.000000
vn 0.000000 1.000000 0.000000
vn 0.000000 1.000000 0.000000
vn 0.000000 1.000000 0.000000
vn 0.000000 1.000000 0.000000
vn 0.000000 1.000000 0.000000
vn 0.000000 1.000000 0.000000
vn 0.000000 1.000000 0.000000
vn 0.000000 1.000000 0.000000
vn 0.000000 1.000000 0.000000
vn 0.000000 1.000000 0.000000
vn 0.000000 1.000000 0.000000
vn 0.000000 1.000000 0.000000
vn 0.000000 1.000000 0.000000
vn 0.000000 1.000000 0.000000
vn 0.000000 1.000000 0.000000
vn 0.000000 1.000000 0.000000
vn 0.000000 1.000000 0.000000
vn 0.000000 1.000000 0.000000
vn 0.000000 1.000000 0.000000
vn 0.000000 1.000000 0.000000
vn 0.000000 1.000000 0.000000
vn 0.000000 1.000000 0.000000
vn 0.000000 1.000000 0.000000
vn 0.000000 1.000000 0.000000
vn 0.000000 1.000000 0.000000
vn 0.000000 1.000000 0.000000
vn 0.000000 1.000000 0.000000
vn 0.000000 1.000000 0.000000
vn 0.000000 1.000000 0.000000
vn 0.000000 1.000000 0.000000
vn 0.000000 1.000000 0.000000
vn 0.000000 1.000000 0.000000
vn 0.000000 1.000000 0.000000
vn 0.000000 1.000000 0.000000
vn 0.000000 1.000000 0.000000
vn 0.000000 1.000000 0.000000
vn 0.000000 1.000000 0.000000
vn 0.000000 1.000000 0.000000
vn 0.000000 1.000000 0.000000
vn 0.000000 1.000000 0.000000
vn 0.000000 1.000000 0.000000
vn 0.000000 1.000000 0.000000
vn 0.000000 1.000000 0.000000
vn 0.000000 1.000000 0.000000
vn 0.000000 1.000000 0.000000
vn 0.000000 1.000000 0.000000
vn 0.000000 1.000000 0.000000
vn 0.000000 1.000000 0.000000
vn 0.000000 1.000000 0.000000
vn 0.000000 1.000000 0.000000
vn 0.000000 1.000000 0.000000
vn 0.000000 1.000000 0.000000
vn 0.000000 1.000000 0.000000
vn 0.000000 1.000000 0.000000
vn 0.000000 1.000000 0.000000
vn 0.000000 1.000000 0.000000
vn 0.000000 1.000000 0.000000
vn 0.000000 1.000000 0.000000
vn 0.000000 1.000000 0.000000
vn 0.000000 1.000000 0.000000
vn 0.000000 1.000000 0.000000
vn 0.000000 1.000000 0.000000
vn 0.000000 1.000000 0.000000
vn 0.000000 1.000000 0.000000
vn 0.000000 1.000000 0.000000
s 1
g polySurface2
usemtl initialShadingGroup
f 1/1/1 2/2/2 3/3/3 4/4/4
f 5/5/5 6/6/6 7/7/7 8/8/8
f 3/3/3 9/9/9 10/10/10 11/11/11
f 12/12/12 13/13/13 5/5/5 14/14/14
f 15/15/15 16/16/16 12/12/12 17/17/17
f 20/18/18 26/19/19 21/20/20
f 27/21/21 28/22/22 29/23/23
f 24/24/24 16/16/16 15/15/15 30/25/25 25/26/26
f 2/2/2 31/27/27 9/9/9 3/3/3
f 13/13/13 32/28/28 6/6/6 5/5/5
f 9/9/9 33/29/29 34/30/30 10/10/10
f 16/16/16 35/31/31 13/13/13 12/12/12
f 28/22/22 36/32/32 18/33/33 29/23/23
f 37/34/34 38/35/35 39/36/36 26/19/19
f 31/27/27 40/37/37 33/29/29 9/9/9
f 33/29/29 41/38/38 37/34/34 34/30/30
f 35/31/31 42/39/39 32/28/28 13/13/13
f 34/30/30 37/34/34 26/19/19 20/18/18 19/40/40 45/41/41
f 26/19/19 39/36/36 28/22/22 27/21/21 22/42/42 21/20/20
f 49/43/43 50/44/44 48/45/45 47/46/46
f 41/38/38 52/47/47 38/35/35 37/34/34
f 38/35/35 53/48/48 49/43/43 39/36/36
f 40/37/37 54/49/49 41/38/38 33/29/29
f 55/50/50 56/51/51 42/39/39 35/31/31
f 36/32/32 28/22/22 39/36/36 49/43/43 47/46/46
f 54/49/49 57/52/52 52/47/47 41/38/38
f 58/53/53 59/54/54 56/51/51 55/50/50
f 52/47/47 60/55/55 53/48/48 38/35/35
f 46/56/56 55/50/50 35/31/31 16/16/16 24/24/24 23/57/57
f 62/58/58 63/59/59 64/60/60 65/61/61
f 60/55/55 66/62/62 67/63/63 53/48/48
f 57/52/52 68/64/64 60/55/55 52/47/47
f 69/65/65 70/66/66 59/54/54 58/53/53
f 43/67/67 58/53/53 55/50/50 46/56/56 44/68/68
f 66/62/62 71/69/69 72/70/70 67/63/63
f 68/64/64 73/71/71 66/62/62 60/55/55
f 74/72/72 75/73/73 70/66/66 69/65/65
f 72/70/70 76/74/74 74/72/72 63/59/59
f 77/75/75 69/65/65 58/53/53 43/67/67 51/76/76
f 73/71/71 78/77/77 71/69/69 66/62/62
f 76/74/74 79/78/78 75/73/73 74/72/72
f 71/69/69 80/79/79 76/74/74 72/70/70
f 81/80/80 67/63/63 72/70/70 63/59/59 62/58/58
f 64/60/60 63/59/59 74/72/72 69/65/65 77/75/75
f 78/77/77 82/81/81 80/79/79 71/69/69
f 80/79/79 83/82/82 79/78/78 76/74/74
f 82/81/81 84/83/83 83/82/82 80/79/79
f 53/48/48 67/63/63 81/80/80 61/84/84 50/44/44 49/43/43
f 85/85/85 86/86/86 10/10/10 34/30/30 45/41/41
f 30/25/25 15/15/15 87/87/87
f 86/86/86 85/85/85 88/88/88 89/89/89
f 4/4/4 3/3/3 11/11/11 90/90/90
f 14/14/14 5/5/5 8/8/8 91/91/91
f 11/11/11 10/10/10 86/86/86 92/92/92
f 17/17/17 12/12/12 14/14/14 93/93/93
f 87/87/87 15/15/15 17/17/17 94/94/94 95/95/95 96/96/96
f 90/90/90 11/11/11 92/92/92 97/97/97
f 94/94/94 17/17/17 93/93/93 98/98/98
f 93/93/93 14/14/14 91/91/91 99/99/99
f 100/100/100 101/101/101 102/102/102
f 103/103/103 94/94/94 98/98/98 104/104/104
f 98/98/98 93/93/93 99/99/99 105/105/105
f 97/97/97 92/92/92 106/106/106 107/107/107
f 108/108/108 106/106/106 92/92/92 86/86/86 89/89/89
f 95/95/95 94/94/94 103/103/103 109/109/109 110/110/110
f 104/104/104 98/98/98 105/105/105 111/111/111
f 107/107/107 106/106/106 112/112/112 113/113/113
f 114/114/114 103/103/103 104/104/104 115/115/115
f 106/106/106 108/108/108 117/116/116 116/117/117 112/112/112
f 109/109/109 103/103/103 114/114/114 118/118/118 119/119/119
f 121/120/120 101/101/101 122/121/121 123/122/122
f 122/121/121 114/114/114 115/115/115 124/123/123
f 115/115/115 104/104/104 111/111/111 125/124/124
f 113/113/113 112/112/112 126/125/125 127/126/126
f 130/127/127 121/120/120 123/122/122 131/128/128
f 124/123/123 115/115/115 125/124/124 132/129/129
f 127/126/126 126/125/125 130/127/127 133/130/130
f 123/122/122 122/121/121 124/123/123 134/131/131
f 118/118/118 114/114/114 122/121/121 101/101/101 100/100/100
f 112/112/112 116/117/117 120/132/132 135/133/133 126/125/125
f 133/130/130 130/127/127 131/128/128 136/134/134
f 134/131/131 124/123/123 132/129/129 137/135/135
f 131/128/128 123/122/122 134/131/131 138/136/136
f 139/137/137 121/120/120 130/127/127 126/125/125 135/133/133
f 136/134/134 131/128/128 138/136/136 140/138/138
f 138/136/136 134/131/131 137/135/135 141/139/139
f 140/138/138 138/136/136 141/139/139 142/140/140
f 102/102/102 101/101/101 121/120/120 139/137/137 129/141/141 128/142/142
