# This file uses centimeters as units for non-parametric coordinates.

mtllib WALL.mtl
g default
v -0.856945 0.000000 -0.143055
v -0.856945 0.143055 0.000000
v -1.000000 0.143055 -0.143055
v -0.398845 0.000000 -0.143055
v -0.398845 0.143055 0.000000
v -0.601155 0.143055 0.000000
v -0.601155 0.000000 -0.143055
v 0.000000 0.143055 -0.149786
v -0.143055 0.142904 -0.006573
v -0.143055 0.000000 -0.143055
v -1.000000 0.856945 -0.143055
v -0.856945 0.856945 0.000000
v -0.856945 1.000000 -0.143055
v -0.606254 1.000000 -0.142164
v -0.600899 0.857363 0.000000
v -0.397979 0.741222 -0.005745
v -0.416005 0.934843 -0.144710
v -0.090912 0.682662 -0.162993
v -0.131773 0.547598 -0.013064
v 0.000000 0.497078 -0.162880
v -1.000000 0.856945 -2.856945
v -0.856945 1.000000 -2.856945
v -0.856945 0.856945 -3.000000
v -0.601674 0.856268 -3.000000
v -0.606995 1.000000 -2.856844
v -0.416324 0.935091 -2.860373
v -0.398171 0.735419 -3.005734
v -0.142294 0.542445 -3.011859
v -0.090321 0.682203 -2.870545
v 0.000000 0.497815 -2.870405
v -1.000000 0.143055 -2.856945
v -0.856945 0.143055 -3.000000
v -0.856945 0.000000 -2.856945
v -0.601155 0.000000 -2.856945
v -0.601155 0.143055 -3.000000
v -0.398845 0.143055 -3.000000
v -0.398845 0.000000 -2.856945
v -0.143055 0.000000 -2.856945
v -0.139878 0.139730 -3.006427
v 0.000000 0.143055 -2.863373
vt 0.860226 0.479361
vt 0.816007 0.052392
vt 0.097704 0.241978
vt 0.098366 0.271817
vt 0.071828 0.421389
vt 0.932284 0.479494
vt 0.900461 0.479435
vt 0.901247 0.052547
vt 0.193290 0.241203
vt 0.193887 0.269699
vt 0.995023 0.478550
vt 0.972519 0.479568
vt 0.973304 0.052680
vt 0.995808 0.051711
vt 0.277184 0.269122
vt 0.101668 0.420727
vt 0.155078 0.419630
vt 0.154621 0.449408
vt 0.195530 0.433721
vt 0.196901 0.394465
vt 0.251532 0.352846
vt 0.261877 0.379941
vt 0.484148 0.475551
vt 0.062409 0.050552
vt 0.065157 0.199474
vt 0.658710 0.052102
vt 0.619394 0.052046
vt 0.618599 0.029526
vt 0.564442 0.028525
vt 0.585907 0.051429
vt 0.521011 0.049710
vt 0.514037 0.027469
vt 0.272557 0.123104
vt 0.273826 0.197100
vt 0.094999 0.198923
vt 0.148358 0.197938
vt 0.148909 0.227780
vt 0.191995 0.227014
vt 0.190528 0.197160
vt 0.244635 0.196922
vt 0.244789 0.226108
vt 0.151721 0.270634
vt 0.247312 0.268418
vt 0.657925 0.478990
vt 0.618492 0.479057
vt 0.585058 0.478595
vt 0.520346 0.475599
vt 0.092251 0.050002
vt 0.145505 0.049160
vt 0.188455 0.073586
vt 0.242563 0.112857
vt 0.861012 0.052473
vt 0.933069 0.052606
vt 0.428458 0.477508
vt 0.429243 0.050669
vt 0.815222 0.479278
vt 0.702929 0.479072
vt 0.703715 0.052185
vt 0.068526 0.272479
vt 0.172159 0.240327
vt 0.151059 0.240795
vt 0.246644 0.239950
vt 0.102329 0.450567
vt 0.176526 0.437280
vt 0.278918 0.343013
vt 0.658752 0.029600
vt 0.602605 0.029497
vt 0.485048 0.049666
vt 0.095550 0.228765
vt 0.170010 0.227391
vn -0.707107 -0.707107 0.000000
vn -0.707107 -0.707107 0.000000
vn -0.707107 -0.707107 0.000000
vn -0.707107 -0.707107 0.000000
vn 0.000000 -0.707107 0.707107
vn 0.000000 -0.707107 0.707107
vn 0.000000 -0.707107 0.707107
vn 0.000000 -0.707107 0.707107
vn -0.707107 0.000000 0.707107
vn -0.707107 0.000000 0.707107
vn -0.707107 0.000000 0.707107
vn -0.707107 0.000000 0.707107
vn 0.000000 -1.000000 0.000000
vn 0.000000 -1.000000 0.000000
vn 0.000000 -1.000000 0.000000
vn 0.000000 -1.000000 0.000000
vn 0.004962 -0.702648 0.711520
vn 0.004989 -0.702624 0.711544
vn 0.008980 -0.699004 0.715061
vn 0.008980 -0.699004 0.715061
vn 0.006496 0.001838 0.999977
vn 0.023157 0.008068 0.999699
vn 0.020232 0.006666 0.999773
vn 0.005058 0.001431 0.999986
vn 0.707107 -0.707107 0.000000
vn 0.707107 -0.707107 0.000000
vn 0.707107 -0.707107 0.000000
vn 0.707107 -0.707107 0.000000
vn 0.729962 0.006789 0.683454
vn 0.729962 0.006789 0.683454
vn 0.739301 0.052007 0.671364
vn 0.639599 0.307388 0.704575
vn -0.707107 0.707107 0.000000
vn -0.707107 0.707107 0.000000
vn -0.707107 0.707107 0.000000
vn -0.707107 0.707107 0.000000
vn -0.001828 0.706503 0.707708
vn -0.001828 0.706503 0.707708
vn 0.158839 0.671741 0.723557
vn 0.126973 0.680181 0.721963
vn 0.145542 0.989352 -0.000009
vn 0.521745 0.853102 -0.000007
vn 0.525697 0.850672 -0.000006
vn 0.146839 0.989160 -0.000009
vn 0.377643 0.599744 0.705473
vn 0.422802 0.583036 0.693764
vn 0.499776 0.548187 0.670608
vn 0.722505 0.691366 0.000040
vn 0.986620 0.163037 0.000045
vn 0.985959 0.166990 0.000046
vn 0.725575 0.688143 0.000042
vn -0.707107 0.000000 -0.707106
vn -0.707107 0.000000 -0.707106
vn -0.707107 0.000000 -0.707106
vn -0.707107 0.000000 -0.707106
vn 0.001088 0.706404 -0.707808
vn 0.001088 0.706404 -0.707808
vn 0.118676 0.680908 -0.722689
vn 0.150484 0.672207 -0.724908
vn -0.004988 -0.001418 -0.999987
vn -0.019382 -0.006442 -0.999791
vn -0.021959 -0.007781 -0.999729
vn -0.006499 -0.001848 -0.999977
vn 0.382121 0.579768 -0.719620
vn 0.340372 0.600871 -0.723257
vn 0.453249 0.541272 -0.708230
vn 0.605240 0.296631 -0.738712
vn 0.715150 0.034940 -0.698098
vn 0.709307 -0.009336 -0.704838
vn 0.709307 -0.009336 -0.704838
vn 0.000000 -0.707107 -0.707107
vn 0.000000 -0.707107 -0.707107
vn 0.000000 -0.707107 -0.707107
vn 0.000000 -0.707107 -0.707107
vn -0.007477 -0.713740 -0.700371
vn -0.007494 -0.713756 -0.700355
vn -0.013320 -0.718853 -0.695035
vn -0.013320 -0.718853 -0.695035
vn 0.000000 0.000000 1.000000
vn 0.000000 0.000000 1.000000
vn 0.030987 0.011819 0.999450
vn 0.030987 0.011819 0.999450
vn 0.000000 1.000000 0.000000
vn 0.000000 1.000000 0.000000
vn 0.000000 0.000000 -1.000000
vn 0.000000 0.000000 -1.000000
vn -0.028665 -0.011267 -0.999525
vn -0.028665 -0.011267 -0.999526
vn 0.000000 -1.000000 0.000000
vn 0.000000 -1.000000 0.000000
vn 0.000000 -1.000000 0.000000
vn 0.000000 -1.000000 0.000000
vn 1.000000 0.000000 0.000000
vn 1.000000 0.000000 0.000000
vn -1.000000 0.000000 0.000000
vn -1.000000 0.000000 0.000000
vn -1.000000 0.000000 0.000000
vn -1.000000 0.000000 0.000000
vn -0.577350 -0.577350 0.577350
vn -0.577350 -0.577350 0.577350
vn -0.577350 -0.577350 0.577350
vn 0.586807 -0.559256 0.585569
vn 0.586807 -0.559256 0.585569
vn 0.586807 -0.559256 0.585569
vn -0.577351 0.577350 0.577350
vn -0.577351 0.577350 0.577350
vn -0.577351 0.577350 0.577350
vn -0.577351 0.577350 -0.577350
vn -0.577351 0.577350 -0.577350
vn -0.577351 0.577350 -0.577350
vn -0.577351 -0.577350 -0.577350
vn -0.577350 -0.577350 -0.577350
vn -0.577351 -0.577350 -0.577350
vn 0.577657 -0.602408 -0.550832
vn 0.577657 -0.602408 -0.550832
vn 0.577657 -0.602408 -0.550832
s off
g Wall_LP
usemtl initialShadingGroup
f 1/1/1 3/56/2 31/2/3 33/52/4
s 1
f 2/4/5 1/3/6 7/61/7 6/42/8
s off
f 3/59/9 2/4/10 12/16/11 11/5/12
s 2
f 4/6/13 7/7/14 34/8/15 37/53/16
s 1
f 5/10/17 4/9/18 10/62/19 9/43/20
s 3
f 6/42/21 5/10/22 16/20/23 15/17/24
s off
f 8/11/25 10/12/26 38/13/27 40/14/28
s 4
f 9/43/29 8/15/30 20/65/31 19/21/32
s off
f 11/57/33 13/44/34 22/26/35 21/58/36
s 4
f 13/63/37 12/16/38 15/17/39 14/18/40
s 6
f 14/45/41 17/46/42 26/30/43 25/27/44
s 4
f 17/19/45 16/20/46 19/21/32 18/22/47
s 6
f 18/47/48 20/23/49 30/68/50 29/31/51
s off
f 21/24/52 23/48/53 32/35/54 31/25/55
s 8
f 23/66/56 22/26/57 25/27/58 24/28/59
s 9
f 24/49/60 27/50/61 36/39/62 35/36/63
s 8
f 27/29/64 26/30/65 29/31/66 28/32/67
f 28/51/67 30/33/68 40/34/69 39/40/70
s 10
f 33/69/71 32/35/72 35/36/73 34/37/74
f 37/38/75 36/39/76 39/40/77 38/41/78
s 3
f 2/4/79 6/42/21 15/17/24 12/16/80
f 5/10/22 9/43/81 19/21/82 16/20/23
s 6
f 13/44/83 14/45/41 25/27/44 22/26/84
f 17/46/42 18/47/48 29/31/51 26/30/43
s 9
f 23/48/85 24/49/60 35/36/63 32/35/86
f 27/50/61 28/51/87 39/40/88 36/39/62
s 2
f 33/52/89 34/8/15 7/7/14 1/1/90
f 37/53/16 38/13/91 10/12/92 4/6/13
s 6
f 8/54/93 40/55/94 30/68/50 20/23/49
s off
f 31/2/95 3/56/96 11/57/97 21/58/98
f 1/3/99 2/4/100 3/59/101
s 1
f 4/60/18 5/10/17 6/42/8 7/61/7
s off
f 8/15/102 9/43/103 10/62/104
f 11/5/105 12/16/106 13/63/107
s 4
f 14/18/40 15/17/39 16/20/46 17/64/45
f 18/22/47 19/21/32 20/65/31
s off
f 21/58/108 22/26/109 23/66/110
s 8
f 24/28/59 25/27/58 26/30/65 27/67/64
f 28/32/67 29/31/66 30/68/68
s off
f 31/25/111 32/35/112 33/69/113
s 10
f 34/37/74 35/36/73 36/39/76 37/70/75
s off
f 38/41/114 39/40/115 40/34/116
