# This file uses centimeters as units for non-parametric coordinates.

mtllib WALL 2.mtl
g default
v -0.826862 0.021277 -0.121107
v -0.880700 0.047510 -0.119300
v -0.877569 0.020623 -0.172221
v -0.826858 0.000000 -0.172478
v -1.000000 0.173141 -0.173141
v -0.978726 0.121781 -0.173141
v -0.952372 0.119241 -0.119241
v -0.978726 0.173141 -0.121781
v -0.978726 0.173141 -2.878219
v -0.952372 0.119241 -2.880759
v -0.979377 0.122431 -2.827779
v -1.000000 0.173141 -2.826859
v -0.826858 0.000000 -2.827522
v -0.878219 0.021274 -2.826859
v -0.880759 0.047628 -2.880759
v -0.826862 0.021277 -2.878893
v -0.878219 0.173141 -0.021274
v -0.880759 0.119241 -0.047628
v -0.827717 0.122956 -0.020671
v -0.826859 0.173736 0.000000
v -0.472204 0.000000 -0.163436
v -0.450550 0.022040 -0.115292
v -0.500095 0.044313 -0.094303
v -0.545513 0.020371 -0.117194
v -0.527796 0.000000 -0.163519
v -0.632299 0.175253 0.000000
v -0.622548 0.125514 -0.019924
v -0.558559 0.126993 -0.018828
v -0.576706 0.175459 0.000000
v -0.826859 0.878268 -0.021274
v -0.880755 0.880755 -0.047619
v -0.877569 0.827779 -0.020623
v -0.826859 0.826908 0.000000
v -1.000000 0.826859 -0.173141
v -0.978726 0.826859 -0.121781
v -0.952372 0.880759 -0.119241
v -0.978726 0.878219 -0.173141
v -0.424939 0.173654 -0.000268
v -0.446038 0.124112 -0.020248
v -0.380419 0.125097 -0.019477
v -0.369351 0.173044 -0.000988
v 0.000000 0.037836 -0.175145
v -0.022347 0.060552 -0.124606
v -0.063580 0.023423 -0.121373
v -0.037832 0.000000 -0.173188
v -0.172082 0.173061 -0.006282
v -0.158787 0.121366 -0.026859
v -0.121153 0.157910 -0.027402
v -0.372297 0.749000 -0.026892
v -0.427415 0.782008 -0.023126
v -0.427539 0.724043 -0.004577
v -0.368082 0.682606 -0.006209
v -0.630042 0.877417 -0.020033
v -0.631134 0.827239 0.000000
v -0.573364 0.809577 -0.000784
v -0.575344 0.863788 -0.022188
v -0.012552 0.522709 -0.191429
v -0.036167 0.535366 -0.138526
v -0.018551 0.475234 -0.140736
v 0.000000 0.468552 -0.190394
v -0.149467 0.583680 -0.033540
v -0.162447 0.532513 -0.011662
v -0.112818 0.509050 -0.035106
v -0.104377 0.561008 -0.060628
v -0.826859 1.000000 -0.173034
v -0.878219 0.978726 -0.173141
v -0.880759 0.952372 -0.119241
v -0.826859 0.978726 -0.121674
v -0.826859 0.978726 -2.878207
v -0.880760 0.952370 -2.880760
v -0.877569 0.979377 -2.827779
v -0.826859 1.000000 -2.826847
v -1.000000 0.826859 -2.826859
v -0.978726 0.878219 -2.826859
v -0.952372 0.880759 -2.880759
v -0.978726 0.826859 -2.878219
v -0.634440 1.000000 -0.170443
v -0.635563 0.978682 -0.121023
v -0.578147 0.970175 -0.122136
v -0.579604 0.990870 -0.170701
v -0.392284 0.916442 -0.176100
v -0.442666 0.943975 -0.172534
v -0.444453 0.918957 -0.125297
v -0.385390 0.884487 -0.125699
v -0.385464 0.884359 -2.882239
v -0.442208 0.918109 -2.879227
v -0.444121 0.944552 -2.830487
v -0.393260 0.917200 -2.831898
v -0.634243 0.980181 -2.876595
v -0.637086 1.000000 -2.826758
v -0.580317 0.990921 -2.829160
v -0.578774 0.970103 -2.877819
v -0.113451 0.700146 -0.190286
v -0.120904 0.681336 -0.139536
v -0.083022 0.631882 -0.139181
v -0.078354 0.657034 -0.191510
v -0.021451 0.473566 -2.890988
v -0.037015 0.534274 -2.892927
v -0.012910 0.524162 -2.841078
v 0.000000 0.467677 -2.839546
v -0.120696 0.680235 -2.889863
v -0.114137 0.700678 -2.839660
v -0.077776 0.656584 -2.841993
v -0.084213 0.630622 -2.893003
v -0.826859 0.826779 -3.000000
v -0.878219 0.826859 -2.978726
v -0.880759 0.880759 -2.952372
v -0.826859 0.878139 -2.978726
v -0.826860 0.122073 -2.978725
v -0.880785 0.119215 -2.952320
v -0.877569 0.172221 -2.979377
v -0.826859 0.173435 -3.000000
v -0.630839 0.827231 -3.000000
v -0.631644 0.877030 -2.979398
v -0.575167 0.862560 -2.978331
v -0.573823 0.803826 -3.000787
v -0.367764 0.674761 -3.006088
v -0.425875 0.719554 -3.004632
v -0.430088 0.780469 -2.984823
v -0.371909 0.742818 -2.985163
v -0.377491 0.125111 -2.980932
v -0.441454 0.126987 -2.981166
v -0.425275 0.177419 -3.000291
v -0.365863 0.176691 -3.001035
v -0.619740 0.124925 -2.981158
v -0.632692 0.175078 -3.000000
v -0.575057 0.173653 -3.000000
v -0.557397 0.125615 -2.981173
v -0.172464 0.527293 -3.010618
v -0.159195 0.582193 -2.989945
v -0.111351 0.557607 -2.966815
v -0.120566 0.504576 -2.990026
v -0.037785 0.000000 -2.830190
v -0.060457 0.021841 -2.882113
v -0.022386 0.061868 -2.883115
v 0.000000 0.037791 -2.830565
v -0.170417 0.171091 -3.006073
v -0.119003 0.155895 -2.984617
v -0.155856 0.120027 -2.983376
v -0.527796 0.000000 -2.836482
v -0.549387 0.022013 -2.884585
v -0.499905 0.044313 -2.905698
v -0.454334 0.020437 -2.883160
v -0.472204 0.000000 -2.836750
vt 0.108178 0.241745
vt 0.092969 0.251998
vt 0.104078 0.246408
vt 0.849114 0.479341
vt 0.853746 0.474763
vt 0.068652 0.278158
vt 0.072803 0.415895
vt 0.810498 0.474537
vt 0.078350 0.267291
vt 0.093288 0.266960
vt 0.066152 0.193983
vt 0.062514 0.056231
vt 0.075184 0.204258
vt 0.069479 0.193116
vt 0.827147 0.052412
vt 0.854310 0.057193
vt 0.106129 0.228570
vt 0.162786 0.227524
vt 0.090399 0.218921
vt 0.090118 0.203988
vt 0.104369 0.267490
vt 0.920751 0.476266
vt 0.912006 0.476237
vt 0.912780 0.055788
vt 0.185040 0.241319
vt 0.181129 0.252329
vt 0.183491 0.245741
vt 0.191425 0.266344
vt 0.172339 0.249570
vt 0.147184 0.267215
vt 0.160526 0.267087
vt 0.183966 0.265966
vt 0.107804 0.414323
vt 0.148632 0.413487
vt 0.108042 0.425042
vt 0.096811 0.425804
vt 0.076126 0.415015
vt 0.708438 0.056926
vt 0.691790 0.479052
vt 0.669456 0.479011
vt 0.197809 0.266034
vt 0.995030 0.474561
vt 0.989079 0.474858
vt 0.989855 0.056920
vt 0.995799 0.056872
vt 0.276718 0.249279
vt 0.272114 0.251800
vt 0.244008 0.264187
vt 0.251777 0.271644
vt 0.202862 0.382100
vt 0.245058 0.349841
vt 0.196651 0.401621
vt 0.202359 0.395671
vt 0.195745 0.427575
vt 0.188659 0.403415
vt 0.160605 0.409535
vt 0.158439 0.421637
vt 0.479669 0.471215
vt 0.493200 0.475563
vt 0.489156 0.471063
vt 0.511825 0.475588
vt 0.271702 0.350596
vt 0.255328 0.344911
vt 0.257520 0.355584
vt 0.262930 0.369802
vt 0.107998 0.450442
vt 0.108506 0.445991
vt 0.148409 0.445103
vt 0.144571 0.449631
vt 0.653201 0.474266
vt 0.653969 0.056828
vt 0.653984 0.048749
vt 0.666209 0.048370
vt 0.697013 0.056905
vt 0.069620 0.050419
vt 0.084077 0.050152
vt 0.624118 0.056787
vt 0.612510 0.478974
vt 0.588887 0.478647
vt 0.202054 0.428433
vt 0.201436 0.423284
vt 0.255328 0.379793
vt 0.253687 0.386579
vt 0.580345 0.473647
vt 0.581308 0.055900
vt 0.582566 0.047864
vt 0.577187 0.047974
vt 0.568600 0.032961
vt 0.590658 0.048026
vt 0.614701 0.056392
vt 0.614458 0.048737
vt 0.515356 0.471098
vt 0.525743 0.054577
vt 0.271045 0.127099
vt 0.274149 0.215923
vt 0.264815 0.120459
vt 0.268209 0.128026
vt 0.250134 0.115444
vt 0.495385 0.046142
vt 0.516006 0.054192
vt 0.514178 0.046165
vt 0.510532 0.034548
vt 0.650725 0.029585
vt 0.654013 0.032932
vt 0.623307 0.032776
vt 0.622834 0.029534
vt 0.098643 0.056179
vt 0.090585 0.192918
vt 0.101158 0.192470
vt 0.141656 0.191380
vt 0.150797 0.052170
vt 0.180330 0.068965
vt 0.551696 0.028258
vt 0.561885 0.031778
vt 0.519964 0.030927
vt 0.516845 0.027527
vt 0.195026 0.086123
vt 0.197284 0.190020
vt 0.188682 0.200073
vt 0.195219 0.200827
vt 0.178634 0.215635
vt 0.181710 0.200676
vt 0.153683 0.191456
vt 0.157548 0.201408
vt 0.169854 0.218147
vt 0.159623 0.222989
vt 0.247263 0.120903
vt 0.238133 0.190485
vt 0.264577 0.225768
vt 0.183032 0.227168
vt 0.180354 0.223158
vt 0.261706 0.221255
vt 0.241458 0.201369
vt 0.248998 0.193582
vt 0.821924 0.474558
vt 0.822487 0.056991
vt 0.162760 0.244786
vt 0.073103 0.278656
vt 0.094067 0.278192
vt 0.097231 0.414739
vt 0.263415 0.244231
vt 0.156969 0.277280
vt 0.188593 0.276203
vt 0.190649 0.391019
vt 0.274773 0.338359
vt 0.696245 0.474327
vt 0.664627 0.474270
vt 0.665190 0.056702
vt 0.149092 0.423948
vt 0.613816 0.474559
vt 0.589751 0.474238
vt 0.590780 0.056139
vt 0.248177 0.360329
vt 0.490178 0.054288
vt 0.066963 0.056747
vt 0.087929 0.056360
vt 0.623686 0.048942
vt 0.151521 0.059993
vt 0.182731 0.077003
vt 0.184889 0.190093
vt 0.524602 0.046696
vt 0.269426 0.212878
vt 0.101740 0.224110
vt 0.101356 0.203184
vt 0.144552 0.201690
vt 0.104783 0.278078
vt 0.145373 0.277495
vt 0.200184 0.275815
vt 0.241388 0.274856
vt 0.622934 0.474617
vt 0.524840 0.471314
vt 0.139532 0.055330
vt 0.236324 0.116134
vt 0.865736 0.057109
vt 0.864967 0.474742
vt 0.921524 0.055762
vt 0.411914 0.473489
vt 0.412676 0.055799
vt 0.707671 0.474348
vt 0.097142 0.440743
vt 0.173594 0.434242
vt 0.666230 0.037106
vt 0.602610 0.032531
vt 0.860226 0.479361
vt 0.826753 0.479299
vt 0.815222 0.479278
vt 0.816007 0.052392
vt 0.811266 0.057115
vt 0.849480 0.052452
vt 0.861012 0.052473
vt 0.172159 0.240327
vt 0.169598 0.244125
vt 0.164925 0.240487
vt 0.081873 0.426136
vt 0.071828 0.421389
vt 0.275515 0.240234
vt 0.266720 0.239486
vt 0.278918 0.343013
vt 0.277353 0.339323
vt 0.657925 0.478990
vt 0.688738 0.048412
vt 0.703715 0.052185
vt 0.157834 0.443393
vt 0.154621 0.449408
vt 0.585058 0.478595
vt 0.261877 0.379941
vt 0.485048 0.049666
vt 0.480298 0.054511
vt 0.092251 0.050002
vt 0.613991 0.032450
vt 0.618599 0.029526
vt 0.188455 0.073586
vt 0.514149 0.027824
vt 0.273447 0.224763
vt 0.167491 0.223965
vt 0.170010 0.227391
vn -0.056429 -0.778395 0.625234
vn -0.059029 -0.998230 0.007277
vn -0.000114 -0.999963 0.008570
vn -0.005555 -0.799065 0.601219
vn -0.503119 -0.703379 0.502125
vn -0.058338 -0.619397 0.782907
vn -0.502179 -0.500601 0.705135
vn -0.625199 -0.780445 0.005672
vn -0.705422 -0.500194 0.502181
vn -0.780143 -0.625576 0.005661
vn -0.625124 -0.780505 -0.005636
vn -0.058527 -0.998257 -0.007526
vn -0.999527 -0.029734 0.007878
vn -0.781257 -0.021919 0.623824
vn -0.781117 0.021850 0.624002
vn -0.999514 0.030168 0.007870
vn -0.999519 -0.030000 -0.007858
vn -0.780074 -0.625661 -0.005707
vn -0.624190 -0.021819 0.780968
vn -0.780975 -0.021533 -0.624190
vn -0.999514 0.030168 -0.007870
vn -0.781257 0.021919 -0.623824
vn -0.704212 -0.502301 -0.501775
vn -0.623898 -0.022198 -0.781191
vn -0.501701 -0.501863 -0.704577
vn -0.501694 -0.704430 -0.502078
vn -0.058806 -0.781172 -0.621540
vn -0.006316 -0.799370 -0.600805
vn -0.000148 -0.999963 -0.008618
vn -0.059815 -0.620456 -0.781957
vn -0.085510 -0.029862 0.995890
vn -0.085637 0.029491 0.995890
vn -0.623735 0.022129 0.781323
vn -0.003445 -0.632902 0.774224
vn 0.001516 -0.030947 0.999520
vn 0.000139 -0.999968 0.008018
vn 0.000045 -0.999970 -0.007770
vn 0.010037 -0.801933 0.597329
vn 0.000129 -0.999984 0.005625
vn 0.099346 -0.773578 0.625865
vn -0.000778 -0.728819 0.684705
vn 0.013668 -0.633337 0.773756
vn -0.000515 -0.558598 0.829439
vn -0.003311 -0.553692 0.832715
vn 0.011657 -0.022484 0.999679
vn 0.033782 0.044354 0.998444
vn 0.003793 0.032176 0.999475
vn 0.016031 -0.021727 0.999635
vn -0.065155 0.618583 0.783013
vn 0.035177 0.624162 0.780502
vn -0.501605 0.502486 0.704202
vn -0.066728 0.780396 0.621715
vn -0.501565 0.705312 0.500968
vn -0.705411 0.502189 0.500202
vn -0.780352 0.625315 0.005666
vn -0.780164 0.625550 -0.005646
vn -0.625060 0.780556 0.005693
vn 0.028397 -0.032582 0.999066
vn 0.072346 0.069427 0.994960
vn 0.031665 0.028704 0.999086
vn 0.064924 -0.622931 0.779578
vn 0.101834 -0.030287 0.994340
vn 0.707151 -0.707063 0.000012
vn 0.707151 -0.707063 0.000012
vn 0.707151 -0.707063 0.000012
vn 0.707151 -0.707063 0.000012
vn 0.831490 0.009974 0.555451
vn 0.999982 0.000154 0.005916
vn 0.999644 0.025608 0.007559
vn 0.796786 0.029581 0.603537
vn 0.471050 -0.460052 0.752638
vn 0.656010 -0.031000 0.754115
vn 0.639356 0.033025 0.768201
vn 0.098260 0.039743 0.994367
vn 0.420257 0.531681 0.735322
vn 0.431886 0.484086 0.761009
vn 0.297259 0.519264 0.801250
vn 0.492857 0.646188 0.582695
vn 0.333536 0.674434 0.658705
vn 0.256459 0.582052 0.771650
vn 0.267408 0.722062 0.638059
vn 0.031678 0.775659 0.630357
vn 0.924366 0.381473 0.005083
vn 0.999610 0.026626 -0.008467
vn 0.923853 0.382706 -0.005656
vn 0.830518 0.311397 0.461814
vn 0.867891 0.496727 0.005158
vn 0.756043 0.466227 0.459382
vn 0.690247 0.336931 0.640341
vn 0.520209 0.611051 0.596657
vn -0.085675 0.996292 0.007820
vn 0.036990 0.999285 0.007834
vn -0.086959 0.996183 -0.007621
vn -0.625458 0.780237 -0.005722
vn -0.063094 0.780705 -0.621706
vn 0.037440 0.999270 -0.007560
vn 0.033289 0.777580 -0.627902
vn -0.501061 0.704327 -0.502853
vn -0.063469 0.619771 -0.782212
vn -0.500876 0.501234 -0.705612
vn -0.705410 0.500203 -0.502188
vn -0.623746 0.022040 -0.781316
vn 0.278138 0.960512 0.007501
vn 0.279318 0.960169 -0.007490
vn 0.366932 0.930208 0.008587
vn 0.593770 0.804609 0.006427
vn 0.636312 0.771397 0.007301
vn 0.594901 0.803776 -0.006109
vn 0.368620 0.929540 -0.008656
vn 0.460517 0.651649 -0.602725
vn 0.637495 0.770413 -0.008023
vn 0.480243 0.607769 -0.632442
vn 0.309901 0.679303 -0.665213
vn 0.375075 0.527163 -0.762508
vn 0.263658 0.522715 -0.810711
vn 0.249925 0.727263 -0.639239
vn 0.232958 0.584974 -0.776876
vn 0.035428 0.625019 -0.779805
vn 0.868660 0.495377 -0.005573
vn 0.782713 0.008611 -0.622323
vn 0.999983 -0.000131 -0.005777
vn 0.826278 -0.010509 -0.563165
vn 0.806858 0.292989 -0.512970
vn 0.610983 0.013671 -0.791526
vn 0.639670 0.313643 -0.701749
vn 0.726407 0.455067 -0.515021
vn 0.381702 0.474599 -0.793133
vn -0.085205 0.029922 -0.995914
vn 0.001850 0.033037 -0.999452
vn -0.086043 -0.029554 -0.995853
vn -0.001590 -0.031072 -0.999516
vn -0.005090 -0.633696 -0.773566
vn 0.008697 0.039938 -0.999164
vn -0.011620 -0.029101 -0.999509
vn -0.000618 0.020827 -0.999783
vn 0.019755 0.051342 -0.998486
vn 0.041423 0.017772 -0.998984
vn -0.026944 -0.056065 -0.998063
vn -0.015823 -0.031967 -0.999364
vn -0.008928 -0.647268 -0.762210
vn 0.052433 -0.057299 -0.996979
vn 0.043752 -0.640917 -0.766362
vn -0.000366 -0.550283 -0.834978
vn -0.001573 -0.809762 -0.586757
vn -0.001329 -0.728301 -0.685256
vn 0.003989 -0.554684 -0.832052
vn 0.639878 -0.054063 -0.766572
vn 0.088664 -0.785704 -0.612215
vn 0.000073 -0.999985 -0.005528
vn 0.470071 -0.482273 -0.739220
vn 0.595187 -0.589965 0.545613
vn 0.595187 -0.589965 0.545613
vn 0.605104 -0.599134 -0.524297
vn 0.605104 -0.599134 -0.524297
s 1
g Wall_LP1
usemtl initialShadingGroup
f 1/3/1 4/1/2 25/193/3 24/137/4
f 2/2/5 1/3/1 19/21/6 18/10/7
f 3/5/8 2/4/5 7/185/9 6/135/10
f 4/175/2 3/5/8 14/16/11 13/174/12
f 5/6/13 8/138/14 35/37/15 34/7/16
f 6/135/10 5/8/13 12/188/17 11/136/18
f 8/138/14 7/9/9 18/10/7 17/139/19
f 9/14/20 12/11/17 73/12/21 76/155/22
f 10/13/23 9/14/20 111/108/24 110/20/25
f 11/136/18 10/15/23 15/189/26 14/16/11
f 13/17/12 16/163/27 141/126/28 140/18/29
f 16/163/27 15/19/26 110/20/25 109/164/30
f 17/139/19 20/166/31 33/33/32 32/140/33
f 20/166/31 19/21/6 27/30/34 26/167/35
f 21/22/36 25/23/3 140/24/29 144/176/37
f 22/27/38 21/25/36 45/197/39 44/141/40
f 23/26/41 22/27/38 40/41/42 39/28/43
f 24/137/4 23/29/41 28/31/44 27/30/34
f 26/167/35 29/142/45 55/56/46 54/34/47
f 29/142/45 28/31/44 39/32/43 38/143/48
f 30/35/49 33/33/32 54/34/47 53/149/50
f 31/36/51 30/35/49 68/67/52 67/180/53
f 32/140/33 31/36/51 36/194/54 35/37/15
f 34/179/16 37/146/55 74/74/56 73/38/21
f 37/146/55 36/39/54 67/40/53 66/147/57
f 38/143/48 41/168/58 52/50/59 51/144/60
f 41/168/58 40/41/42 47/48/61 46/169/62
s off
f 42/42/63 45/43/64 133/44/65 136/45/66
s 1
f 43/47/67 42/46/68 60/199/69 59/145/70
f 44/141/40 43/47/71 48/49/72 47/48/61
f 46/169/62 48/49/72 63/63/73 62/51/74
f 49/53/75 52/50/59 62/51/74 61/153/76
f 50/52/77 49/53/75 84/81/78 83/54/79
f 51/144/60 50/55/77 56/57/80 55/56/46
f 53/149/50 56/57/80 79/203/81 78/68/82
f 57/60/83 60/58/69 100/208/84 99/154/85
f 58/59/86 57/60/83 96/92/87 95/61/88
f 59/145/70 58/62/86 64/64/89 63/63/73
f 61/153/76 64/64/89 95/65/88 94/82/90
f 65/66/91 68/67/52 78/68/82 77/69/92
f 66/147/57 65/70/91 72/71/93 71/148/94
f 69/72/95 72/71/93 90/77/96 89/157/97
f 70/73/98 69/72/95 108/104/99 107/182/100
f 71/148/94 70/73/98 75/201/101 74/74/56
f 76/155/22 75/75/101 107/76/100 106/156/102
f 77/170/92 80/150/103 91/90/104 90/77/96
f 80/150/103 79/78/81 83/79/79 82/151/105
f 81/80/106 84/81/78 94/82/90 93/83/107
f 82/151/105 81/84/106 88/85/108 87/152/109
f 85/87/110 88/85/108 102/93/111 101/161/112
f 86/86/113 85/87/110 120/114/114 119/88/115
f 87/152/109 86/89/113 92/91/116 91/90/104
f 89/157/97 92/91/116 115/210/117 114/105/118
f 93/171/107 96/92/87 103/100/119 102/93/111
f 97/97/120 100/94/84 136/95/121 135/162/122
f 98/96/123 97/97/120 132/127/124 131/98/125
f 99/154/85 98/99/123 104/101/126 103/100/119
f 101/161/112 104/101/126 131/102/125 130/115/127
f 105/103/128 108/104/99 114/105/118 113/106/129
f 106/156/102 105/107/128 112/109/130 111/108/24
f 109/164/30 112/109/130 126/110/131 125/165/132
f 113/172/129 116/158/133 127/123/134 126/110/131
f 116/158/133 115/111/117 119/112/115 118/159/135
f 117/113/136 120/114/114 130/115/127 129/116/137
f 118/159/135 117/117/136 124/118/138 123/160/139
f 121/120/140 124/118/138 137/128/141 139/133/142
f 122/119/143 121/120/140 143/131/144 142/121/145
f 123/160/139 122/122/143 128/124/146 127/123/134
f 125/165/132 128/124/146 142/125/145 141/126/28
f 129/173/137 132/127/124 138/134/147 137/128/141
f 134/132/148 133/129/149 144/130/37 143/131/144
f 135/162/150 134/132/148 139/133/142 138/134/147
f 3/5/8 6/135/10 11/136/18 14/16/11
f 19/21/6 1/3/1 24/137/4 27/30/34
f 8/138/14 17/139/19 32/140/33 35/37/15
f 40/41/42 22/27/38 44/141/40 47/48/61
f 29/142/45 38/143/48 51/144/60 55/56/46
f 48/49/72 43/47/67 59/145/70 63/63/73
f 37/146/55 66/147/57 71/148/94 74/74/56
f 68/67/52 30/35/49 53/149/50 78/68/82
f 80/150/103 82/151/105 87/152/109 91/90/104
f 84/81/78 49/53/75 61/153/76 94/82/90
f 96/92/87 57/60/83 99/154/85 103/100/119
f 76/155/22 106/156/102 111/108/24 9/14/20
f 108/104/99 69/72/95 89/157/97 114/105/118
f 116/158/133 118/159/135 123/160/139 127/123/134
f 120/114/114 85/87/110 101/161/112 130/115/127
f 132/127/124 97/97/120 135/162/122 138/134/147
f 16/163/27 109/164/30 125/165/132 141/126/28
f 143/131/144 121/120/140 139/133/142 134/132/148
f 20/166/31 26/167/35 54/34/47 33/33/32
f 41/168/58 46/169/62 62/51/74 52/50/59
f 65/70/91 77/170/92 90/77/96 72/71/93
f 81/84/106 93/171/107 102/93/111 88/85/108
f 105/107/128 113/172/129 126/110/131 112/109/130
f 117/117/136 129/173/137 137/128/141 124/118/138
f 13/174/12 140/24/29 25/23/3 4/175/2
f 144/176/37 133/44/149 45/43/39 21/22/36
f 42/177/68 136/178/121 100/208/84 60/58/69
f 12/188/17 5/8/13 34/179/16 73/38/21
f 2/2/5 18/10/7 7/9/9
f 39/32/43 28/31/44 23/29/41
f 36/194/54 31/36/51 67/180/53
f 79/203/81 56/57/80 50/55/77 83/181/79
f 95/65/88 64/64/89 58/62/86
f 75/201/101 70/73/98 107/182/100
f 115/210/117 92/91/116 86/89/113 119/183/115
f 131/102/125 104/101/126 98/99/123
f 10/13/23 110/20/25 15/19/26
f 128/124/146 122/122/143 142/125/145
f 1/184/1 2/4/5 3/5/8 4/175/2
f 5/8/13 6/135/10 7/185/9 8/186/14
f 9/187/20 10/15/23 11/136/18 12/188/17
f 13/174/12 14/16/11 15/189/26 16/190/27
f 17/139/19 18/10/7 19/21/6 20/166/31
f 21/191/36 22/192/38 23/29/41 24/137/4 25/193/3
f 26/167/35 27/30/34 28/31/44 29/142/45
f 30/35/49 31/36/51 32/140/33 33/33/32
f 34/7/16 35/37/15 36/194/54 37/195/55
f 38/143/48 39/28/43 40/41/42 41/168/58
f 42/196/151 43/47/71 44/141/40 45/197/152
f 46/169/62 47/48/61 48/49/72
f 49/53/75 50/55/77 51/144/60 52/50/59
f 53/149/50 54/34/47 55/56/46 56/57/80
f 57/198/83 58/62/86 59/145/70 60/199/69
f 61/153/76 62/51/74 63/63/73 64/64/89
f 65/70/91 66/147/57 67/40/53 68/200/52
f 69/72/95 70/73/98 71/148/94 72/71/93
f 73/38/21 74/74/56 75/201/101 76/202/22
f 77/69/92 78/68/82 79/203/81 80/204/103
f 81/84/106 82/151/105 83/79/79 84/205/78
f 85/87/110 86/89/113 87/152/109 88/85/108
f 89/157/97 90/77/96 91/90/104 92/91/116
f 93/83/107 94/82/90 95/65/88 96/206/87
f 97/207/120 98/99/123 99/154/85 100/208/84
f 101/161/112 102/93/111 103/100/119 104/101/126
f 105/107/128 106/156/102 107/76/100 108/209/99
f 109/164/30 110/20/25 111/108/24 112/109/130
f 113/106/129 114/105/118 115/210/117 116/211/133
f 117/117/136 118/159/135 119/112/115 120/212/114
f 121/120/140 122/122/143 123/160/139 124/118/138
f 125/165/132 126/110/131 127/123/134 128/124/146
f 129/116/137 130/115/127 131/102/125 132/213/124
f 133/214/153 134/132/148 135/162/150 136/95/154
f 137/128/141 138/134/147 139/133/142
f 140/18/29 141/126/28 142/125/145 143/215/144 144/216/37
